<svg xmlns="http://www.w3.org/2000/svg" width="152.443" height="31" viewBox="0 0 152.443 31">
  <g id="Group_54" data-name="Group 54" transform="translate(-140 -25)">
    <path id="Path_309" data-name="Path 309" d="M7.778,42.649a7.541,7.541,0,0,1-1.692-.16,2.173,2.173,0,0,1-1.044-.546,2.021,2.021,0,0,1-.532-1.016,7.008,7.008,0,0,1-.146-1.566V37.472a7.4,7.4,0,0,1,.146-1.618,1.948,1.948,0,0,1,.532-1.011,2.145,2.145,0,0,1,1.044-.522,7.972,7.972,0,0,1,1.692-.146H19.156V30.415H7.628a15.492,15.492,0,0,0-3.675.367A5.37,5.37,0,0,0,1.6,31.958,4.437,4.437,0,0,0,.354,34.091a12.263,12.263,0,0,0-.367,3.237v2.145a12.039,12.039,0,0,0,.367,3.218A4.392,4.392,0,0,0,1.6,44.809a5.315,5.315,0,0,0,2.352,1.176,15.492,15.492,0,0,0,3.675.367h11.56v-3.7Z" transform="translate(140.016 -0.122)" fill="#010101"/>
    <path id="Path_310" data-name="Path 310" d="M164.957,34.118a4.583,4.583,0,0,0-1.252-2.146,5.293,5.293,0,0,0-2.352-1.19,15.629,15.629,0,0,0-3.708-.367h-5.321a15.462,15.462,0,0,0-3.675.367,5.361,5.361,0,0,0-2.352,1.176,4.46,4.46,0,0,0-1.252,2.133,12.263,12.263,0,0,0-.367,3.237v2.145a12.039,12.039,0,0,0,.367,3.218,4.413,4.413,0,0,0,1.252,2.119,5.306,5.306,0,0,0,2.352,1.176,15.462,15.462,0,0,0,3.675.367h5.321a15.629,15.629,0,0,0,3.708-.367,5.306,5.306,0,0,0,2.352-1.176,4.441,4.441,0,0,0,1.252-2.119,12.109,12.109,0,0,0,.367-3.218V37.355A12.335,12.335,0,0,0,164.957,34.118Zm-4.02,5.237a6.685,6.685,0,0,1-.16,1.632,1.913,1.913,0,0,1-.588,1.007,2.545,2.545,0,0,1-1.19.522,10.477,10.477,0,0,1-1.943.146h-4.15a10.249,10.249,0,0,1-1.913-.16,2.536,2.536,0,0,1-1.176-.522,1.887,1.887,0,0,1-.588-1,6.77,6.77,0,0,1-.16-1.632V37.472a6.958,6.958,0,0,1,.16-1.647,1.9,1.9,0,0,1,.588-1.016,2.409,2.409,0,0,1,1.176-.5,11.228,11.228,0,0,1,1.913-.132h4.145a11.481,11.481,0,0,1,1.943.132,2.419,2.419,0,0,1,1.19.5,1.913,1.913,0,0,1,.588,1.016,6.872,6.872,0,0,1,.16,1.647Z" transform="translate(20.494 -0.122)" fill="#010101"/>
    <path id="Path_311" data-name="Path 311" d="M315.032,30.43v8.941a6.915,6.915,0,0,1-.16,1.659,1.885,1.885,0,0,1-.56.979,2.261,2.261,0,0,1-1.1.489,10.114,10.114,0,0,1-1.766.132h-4.587a9.408,9.408,0,0,1-1.689-.132,2.38,2.38,0,0,1-1.106-.489,2.021,2.021,0,0,1-.6-.985,5.914,5.914,0,0,1-.188-1.659V30.43h-4.415v9.057a12.109,12.109,0,0,0,.37,3.218,4.4,4.4,0,0,0,1.252,2.119A5.287,5.287,0,0,0,302.834,46a15.462,15.462,0,0,0,3.675.367h5.177A15.83,15.83,0,0,0,315.406,46a5.322,5.322,0,0,0,2.367-1.176,4.392,4.392,0,0,0,1.244-2.119,12.11,12.11,0,0,0,.367-3.218V30.43Z" transform="translate(-106.869 -0.137)" fill="#010101"/>
    <path id="Path_312" data-name="Path 312" d="M460.681,30.418a13.393,13.393,0,0,0-3.444.381,5.554,5.554,0,0,0-2.307,1.192,4.7,4.7,0,0,0-1.308,2.073,9.9,9.9,0,0,0-.414,3.063v9.231h4.382V37.151a6.247,6.247,0,0,1,.164-1.565,2.01,2.01,0,0,1,.522-.971,2.1,2.1,0,0,1,.988-.5,6.957,6.957,0,0,1,1.529-.146h2.734V30.418Z" transform="translate(-234.37 -0.125)" fill="#010101"/>
    <path id="Path_313" data-name="Path 313" d="M548.649.311A1.754,1.754,0,0,0,547.46,0h-1.44a1.712,1.712,0,0,0-1.162.311,1.309,1.309,0,0,0-.337,1.011V3.03a1.353,1.353,0,0,0,.337,1.026,1.681,1.681,0,0,0,1.162.324h1.44a1.707,1.707,0,0,0,1.19-.324A1.407,1.407,0,0,0,549,3.03V1.322A1.35,1.35,0,0,0,548.649.311ZM544.52,5.7V21.232h4.469V5.7Z" transform="translate(-309.801 25)" fill="#010101"/>
    <path id="Path_314" data-name="Path 314" d="M626.131,33.694a4.19,4.19,0,0,0-1.252-1.825A5.535,5.535,0,0,0,622.69,30.8a12.948,12.948,0,0,0-3.251-.348H615.09v3.11h4.349a3.256,3.256,0,0,1,2.087.522,2.612,2.612,0,0,1,.616,2.042v.348H610.354a10.844,10.844,0,0,0-2.722.284,4.073,4.073,0,0,0-1.694.823,2.9,2.9,0,0,0-.87,1.322,5.843,5.843,0,0,0-.25,1.778v1.5a5.528,5.528,0,0,0,.271,1.759,2.911,2.911,0,0,0,.927,1.322,4.66,4.66,0,0,0,1.778.837,11.386,11.386,0,0,0,2.851.292h8.621a16.591,16.591,0,0,0,3.51-.306,4.952,4.952,0,0,0,2.235-1.044,3.924,3.924,0,0,0,1.176-1.913,10.671,10.671,0,0,0,.348-2.912V36.324A7.817,7.817,0,0,0,626.131,33.694Zm-3.987,6.838a4.853,4.853,0,0,1-.174,1.439,1.841,1.841,0,0,1-.522.87,1.991,1.991,0,0,1-.913.428,6.383,6.383,0,0,1-1.322.118H610.97a2.288,2.288,0,0,1-1.322-.325,1.34,1.34,0,0,1-.471-1.176V40.794a1.53,1.53,0,0,1,.444-1.28,1.922,1.922,0,0,1,1.2-.337h11.32Z" transform="translate(-359.609 -0.149)" fill="#010101"/>
    <path id="Path_315" data-name="Path 315" d="M767.493,38.223l7.967-7.793h-5.293l-5.291,5.384L754.32,46.367h4.909L764.7,40.6l5.382,5.765h5.467Z" transform="translate(-483.107 -0.137)" fill="#010101"/>
    <path id="Path_316" data-name="Path 316" d="M755.367,12.049l-1.336,1.407-1.04,1.1-1.406,1.482-4.067,4.283H742.17l6.822-6.852,1.44-1.444-3.138-3.115L742.73,4.38h5.26l5.175,5.384Z" transform="translate(-473.071 21.382)" fill="#bc2230"/>
    <path id="Path_317" data-name="Path 317" d="M300.306,144.416a1.186,1.186,0,0,1,.08,1.352,1.237,1.237,0,0,1-.522.438,1.853,1.853,0,0,1-.791.16H297.25v-4.549h1.739a1.868,1.868,0,0,1,.8.157,1.159,1.159,0,0,1,.5.423,1.063,1.063,0,0,1,.174.591,1.021,1.021,0,0,1-.209.656,1.218,1.218,0,0,1-.564.386A1.006,1.006,0,0,1,300.306,144.416Zm-2.31-.687h.922a.887.887,0,0,0,.572-.174.663.663,0,0,0,0-.962.859.859,0,0,0-.572-.174H298Zm1.6,1.846a.635.635,0,0,0,.216-.511.663.663,0,0,0-.228-.522.908.908,0,0,0-.609-.2H298v1.421H299A.891.891,0,0,0,299.6,145.574Z" transform="translate(-105.542 -92.148)"/>
    <path id="Path_318" data-name="Path 318" d="M324.054,147.24v3.611h-.746v-.426a1.171,1.171,0,0,1-.461.348,1.459,1.459,0,0,1-.605.129,1.609,1.609,0,0,1-.762-.174,1.272,1.272,0,0,1-.531-.522,1.7,1.7,0,0,1-.193-.837V147.24h.738v2.009a1.054,1.054,0,0,0,.242.743.981.981,0,0,0,1.325,0,1.044,1.044,0,0,0,.245-.743V147.24Z" transform="translate(-124.959 -96.628)"/>
    <path id="Path_319" data-name="Path 319" d="M344.983,150.485a1.323,1.323,0,0,1-.534-.419,1.044,1.044,0,0,1-.209-.591h.772a.522.522,0,0,0,.219.383.79.79,0,0,0,.5.153.852.852,0,0,0,.489-.12.367.367,0,0,0,.174-.311.32.32,0,0,0-.193-.3,3.554,3.554,0,0,0-.611-.216,6.056,6.056,0,0,1-.661-.216,1.147,1.147,0,0,1-.442-.322.83.83,0,0,1-.186-.569.892.892,0,0,1,.174-.522,1.152,1.152,0,0,1,.489-.376,1.8,1.8,0,0,1,.729-.137,1.5,1.5,0,0,1,.992.311,1.122,1.122,0,0,1,.4.847h-.746a.538.538,0,0,0-.2-.386.739.739,0,0,0-.478-.144.765.765,0,0,0-.451.111.348.348,0,0,0-.158.294.322.322,0,0,0,.1.244.765.765,0,0,0,.256.153c.1.037.249.083.445.141a5.012,5.012,0,0,1,.645.212,1.184,1.184,0,0,1,.435.318.842.842,0,0,1,.19.555.933.933,0,0,1-.174.55,1.124,1.124,0,0,1-.482.381,1.976,1.976,0,0,1-1.491-.017Z" transform="translate(-144.359 -96.363)"/>
    <path id="Path_320" data-name="Path 320" d="M365.01,139.817a.478.478,0,0,1,.348-.818.454.454,0,0,1,.334.137.489.489,0,0,1,0,.68.454.454,0,0,1-.334.137.461.461,0,0,1-.348-.137Zm.706.616v3.611h-.744v-3.611Z" transform="translate(-161.399 -89.821)"/>
    <path id="Path_321" data-name="Path 321" d="M377.971,147.075a1.273,1.273,0,0,1,.522.522,1.72,1.72,0,0,1,.19.838v2.134h-.734v-2.021a1.043,1.043,0,0,0-.242-.743.978.978,0,0,0-1.325,0,1.043,1.043,0,0,0-.245.743v2.021h-.746v-3.611h.746v.412a1.247,1.247,0,0,1,.468-.348,1.513,1.513,0,0,1,.605-.123A1.628,1.628,0,0,1,377.971,147.075Z" transform="translate(-170.09 -96.347)"/>
    <path id="Path_322" data-name="Path 322" d="M401.9,149.063H399.14a1,1,0,0,0,.322.7,1.014,1.014,0,0,0,.706.261.87.87,0,0,0,.851-.5h.805a1.62,1.62,0,0,1-.593.814,1.74,1.74,0,0,1-1.063.318,1.837,1.837,0,0,1-.925-.23,1.647,1.647,0,0,1-.642-.654,2,2,0,0,1-.233-.979,2.053,2.053,0,0,1,.226-.978,1.578,1.578,0,0,1,.635-.651,1.887,1.887,0,0,1,.939-.23,1.841,1.841,0,0,1,.91.223,1.566,1.566,0,0,1,.621.624,1.868,1.868,0,0,1,.223.925A2.353,2.353,0,0,1,401.9,149.063Zm-.751-.6a.849.849,0,0,0-.3-.661,1.054,1.054,0,0,0-.713-.249.96.96,0,0,0-.661.245,1.03,1.03,0,0,0-.327.664Z" transform="translate(-189.071 -96.371)"/>
    <path id="Path_323" data-name="Path 323" d="M422.633,150.485a1.348,1.348,0,0,1-.534-.419,1.044,1.044,0,0,1-.209-.591h.772a.522.522,0,0,0,.219.383.792.792,0,0,0,.5.153.851.851,0,0,0,.487-.12.369.369,0,0,0,.174-.311.32.32,0,0,0-.193-.3,3.579,3.579,0,0,0-.612-.216,6.057,6.057,0,0,1-.661-.216,1.146,1.146,0,0,1-.442-.322.83.83,0,0,1-.186-.569.882.882,0,0,1,.174-.522,1.136,1.136,0,0,1,.487-.376,1.8,1.8,0,0,1,.729-.137,1.5,1.5,0,0,1,.992.311,1.11,1.11,0,0,1,.4.847h-.746a.532.532,0,0,0-.2-.386.738.738,0,0,0-.478-.144.766.766,0,0,0-.451.111.348.348,0,0,0-.158.294.317.317,0,0,0,.106.244.757.757,0,0,0,.254.153c.1.037.249.083.445.141a4.922,4.922,0,0,1,.645.212,1.185,1.185,0,0,1,.435.318.842.842,0,0,1,.19.555.932.932,0,0,1-.174.55,1.129,1.129,0,0,1-.48.381,1.979,1.979,0,0,1-1.492-.017Z" transform="translate(-208.502 -96.363)"/>
    <path id="Path_324" data-name="Path 324" d="M442.723,150.485a1.336,1.336,0,0,1-.534-.419,1.044,1.044,0,0,1-.209-.591h.772a.522.522,0,0,0,.219.383.792.792,0,0,0,.5.153.851.851,0,0,0,.487-.12.369.369,0,0,0,.174-.311.32.32,0,0,0-.193-.3,3.58,3.58,0,0,0-.612-.216,6.06,6.06,0,0,1-.661-.216,1.147,1.147,0,0,1-.442-.322.838.838,0,0,1-.186-.569.882.882,0,0,1,.174-.522,1.136,1.136,0,0,1,.487-.376,1.8,1.8,0,0,1,.729-.137,1.5,1.5,0,0,1,.991.311,1.117,1.117,0,0,1,.4.847h-.753a.532.532,0,0,0-.2-.386.737.737,0,0,0-.478-.144.766.766,0,0,0-.451.111.348.348,0,0,0-.158.294.316.316,0,0,0,.106.244.756.756,0,0,0,.254.153c.1.037.249.083.445.141a4.923,4.923,0,0,1,.645.212,1.184,1.184,0,0,1,.435.318.831.831,0,0,1,.19.555.932.932,0,0,1-.174.55,1.129,1.129,0,0,1-.48.381,1.98,1.98,0,0,1-1.492-.017Z" transform="translate(-225.097 -96.363)"/>
    <path id="Path_325" data-name="Path 325" d="M477.787,141.82v4.554h-.746v-3.121l-1.392,3.115h-.522l-1.392-3.115v3.121H473V141.82h.805l1.6,3.566,1.59-3.566Z" transform="translate(-250.721 -92.151)"/>
    <path id="Path_326" data-name="Path 326" d="M504.925,147.8a1.642,1.642,0,0,1,1.475-.884,1.565,1.565,0,0,1,.743.174,1.5,1.5,0,0,1,.508.416v-.522h.753v3.6h-.748v-.537a1.485,1.485,0,0,1-.522.426,1.6,1.6,0,0,1-.746.174,1.58,1.58,0,0,1-.851-.24,1.694,1.694,0,0,1-.612-.675,2.072,2.072,0,0,1-.226-.972A2,2,0,0,1,504.925,147.8Zm2.573.327a1.077,1.077,0,0,0-.4-.419,1.072,1.072,0,0,0-1.475.409,1.288,1.288,0,0,0-.155.645,1.341,1.341,0,0,0,.155.654,1.1,1.1,0,0,0,.405.43,1.057,1.057,0,0,0,1.07,0,1.069,1.069,0,0,0,.4-.421,1.329,1.329,0,0,0,.153-.652,1.3,1.3,0,0,0-.148-.651Z" transform="translate(-276.906 -96.363)"/>
    <path id="Path_327" data-name="Path 327" d="M534.227,147.075a1.273,1.273,0,0,1,.522.522,1.72,1.72,0,0,1,.19.838v2.134H534.2v-2.021a1.043,1.043,0,0,0-.242-.743.978.978,0,0,0-1.325,0,1.044,1.044,0,0,0-.245.743v2.021h-.746v-3.611h.758v.412a1.247,1.247,0,0,1,.468-.348,1.513,1.513,0,0,1,.605-.124A1.628,1.628,0,0,1,534.227,147.075Z" transform="translate(-299.161 -96.347)"/>
    <path id="Path_328" data-name="Path 328" d="M554.924,147.8a1.637,1.637,0,0,1,1.475-.884,1.574,1.574,0,0,1,.743.174,1.5,1.5,0,0,1,.508.416v-.522h.753v3.6h-.751v-.537a1.476,1.476,0,0,1-.522.426,1.637,1.637,0,0,1-2.206-.741,2.052,2.052,0,0,1-.226-.972A1.986,1.986,0,0,1,554.924,147.8Zm2.571.327a1.085,1.085,0,0,0-.4-.419,1.068,1.068,0,0,0-1.477.409,1.29,1.29,0,0,0-.153.645,1.34,1.34,0,0,0,.153.654,1.091,1.091,0,0,0,.407.43,1.058,1.058,0,0,0,1.07,0,1.078,1.078,0,0,0,.4-.421,1.33,1.33,0,0,0,.155-.652,1.3,1.3,0,0,0-.162-.649Z" transform="translate(-318.208 -96.363)"/>
    <path id="Path_329" data-name="Path 329" d="M582.529,147.049a1.41,1.41,0,0,1,.506.416v-.522h.753v3.665a1.844,1.844,0,0,1-.209.885,1.518,1.518,0,0,1-.605.612,1.913,1.913,0,0,1-.946.223,2.063,2.063,0,0,1-1.218-.348,1.268,1.268,0,0,1-.55-.934H581a.808.808,0,0,0,.364.456,1.24,1.24,0,0,0,.664.174.992.992,0,0,0,.729-.275,1.075,1.075,0,0,0,.278-.8V150a1.519,1.519,0,0,1-.522.43,1.543,1.543,0,0,1-.736.174,1.607,1.607,0,0,1-.87-.24,1.688,1.688,0,0,1-.616-.666,2.069,2.069,0,0,1-.224-.972,2,2,0,0,1,.224-.962,1.673,1.673,0,0,1,.616-.652,1.647,1.647,0,0,1,.87-.231A1.6,1.6,0,0,1,582.529,147.049Zm.348,1.044a1.076,1.076,0,0,0-.4-.419,1.072,1.072,0,0,0-1.475.409,1.288,1.288,0,0,0-.153.645,1.341,1.341,0,0,0,.153.654,1.1,1.1,0,0,0,.405.43,1.057,1.057,0,0,0,1.07,0,1.07,1.07,0,0,0,.4-.421,1.329,1.329,0,0,0,.153-.652,1.3,1.3,0,0,0-.148-.647Z" transform="translate(-339.165 -96.329)"/>
    <path id="Path_330" data-name="Path 330" d="M609.2,149.071H606.44a1,1,0,0,0,.322.7,1.011,1.011,0,0,0,.706.261.87.87,0,0,0,.851-.5h.805a1.62,1.62,0,0,1-.593.814,1.739,1.739,0,0,1-1.063.318,1.837,1.837,0,0,1-.925-.23,1.647,1.647,0,0,1-.642-.654,2,2,0,0,1-.233-.979,2.053,2.053,0,0,1,.231-.976,1.578,1.578,0,0,1,.635-.651,1.887,1.887,0,0,1,.939-.23,1.841,1.841,0,0,1,.91.223,1.566,1.566,0,0,1,.621.624,1.869,1.869,0,0,1,.223.925,2.36,2.36,0,0,1-.023.36Zm-.751-.6a.849.849,0,0,0-.3-.661,1.054,1.054,0,0,0-.713-.249.957.957,0,0,0-.661.245,1.03,1.03,0,0,0-.327.664Z" transform="translate(-360.312 -96.379)"/>
    <path id="Path_331" data-name="Path 331" d="M635.421,147.026a1.293,1.293,0,0,1,.531.522,1.7,1.7,0,0,1,.193.838v2.134h-.739V148.5a1.044,1.044,0,0,0-.242-.743.977.977,0,0,0-1.325,0,1.044,1.044,0,0,0-.245.743v2.021h-.744V148.5a1.044,1.044,0,0,0-.244-.743.859.859,0,0,0-.661-.259.87.87,0,0,0-.663.259,1.029,1.029,0,0,0-.247.743v2.021h-.745v-3.611h.745v.412a1.268,1.268,0,0,1,.466-.348,1.484,1.484,0,0,1,.6-.124,1.612,1.612,0,0,1,.772.174,1.263,1.263,0,0,1,.522.531,1.2,1.2,0,0,1,.51-.522,1.51,1.51,0,0,1,.746-.193A1.628,1.628,0,0,1,635.421,147.026Z" transform="translate(-380.651 -96.298)"/>
    <path id="Path_332" data-name="Path 332" d="M671.5,149.063H668.74a1,1,0,0,0,.322.7,1.014,1.014,0,0,0,.706.261.87.87,0,0,0,.851-.5h.805a1.619,1.619,0,0,1-.593.814,1.739,1.739,0,0,1-1.063.318,1.837,1.837,0,0,1-.925-.23,1.647,1.647,0,0,1-.642-.654,2,2,0,0,1-.233-.979,2.053,2.053,0,0,1,.226-.978,1.578,1.578,0,0,1,.635-.651,1.888,1.888,0,0,1,.939-.23,1.84,1.84,0,0,1,.91.223,1.581,1.581,0,0,1,.623.624,1.887,1.887,0,0,1,.221.925A2.361,2.361,0,0,1,671.5,149.063Zm-.751-.6a.849.849,0,0,0-.3-.661,1.054,1.054,0,0,0-.713-.249.961.961,0,0,0-.661.245,1.03,1.03,0,0,0-.327.664Z" transform="translate(-411.775 -96.371)"/>
    <path id="Path_333" data-name="Path 333" d="M695.177,147.074a1.273,1.273,0,0,1,.522.522,1.72,1.72,0,0,1,.19.838v2.134h-.739v-2.021a1.043,1.043,0,0,0-.244-.743.857.857,0,0,0-.659-.259.87.87,0,0,0-.665.259,1.044,1.044,0,0,0-.245.743v2.021h-.746v-3.611h.746v.412a1.249,1.249,0,0,1,.468-.348,1.514,1.514,0,0,1,.605-.123A1.628,1.628,0,0,1,695.177,147.074Z" transform="translate(-432.115 -96.346)"/>
    <path id="Path_334" data-name="Path 334" d="M716.408,143.586v2a.387.387,0,0,0,.094.292.485.485,0,0,0,.325.087h.457v.628h-.59a1.131,1.131,0,0,1-.772-.237.988.988,0,0,1-.268-.765v-2h-.424v-.609h.424v-.9h.753v.9h.87v.609Z" transform="translate(-450.817 -92.366)"/>
    <path id="Path_335" data-name="Path 335" d="M740.955,145.916a1.352,1.352,0,0,1-.576-.456,1.14,1.14,0,0,1-.21-.687h.8a.724.724,0,0,0,.233.485.822.822,0,0,0,.579.19.9.9,0,0,0,.6-.186.608.608,0,0,0,.216-.482.522.522,0,0,0-.134-.372.915.915,0,0,0-.334-.223,5.147,5.147,0,0,0-.553-.174,5.328,5.328,0,0,1-.724-.237,1.206,1.206,0,0,1-.473-.377,1.079,1.079,0,0,1-.2-.68,1.2,1.2,0,0,1,.2-.7,1.257,1.257,0,0,1,.55-.452,2,2,0,0,1,.818-.157,1.7,1.7,0,0,1,1.084.331,1.217,1.217,0,0,1,.468.906h-.825a.6.6,0,0,0-.237-.424.87.87,0,0,0-.569-.174.805.805,0,0,0-.522.163.571.571,0,0,0-.2.471.483.483,0,0,0,.129.348.879.879,0,0,0,.323.212,5.023,5.023,0,0,0,.536.174,5.346,5.346,0,0,1,.736.249,1.219,1.219,0,0,1,.485.383,1.1,1.1,0,0,1,.2.7,1.234,1.234,0,0,1-.188.654,1.34,1.34,0,0,1-.543.494,1.8,1.8,0,0,1-.84.186A2.043,2.043,0,0,1,740.955,145.916Z" transform="translate(-471.417 -91.813)"/>
    <path id="Path_336" data-name="Path 336" d="M764.729,147.207l-2.213,5.3h-.779l.732-1.753-1.419-3.547h.831l1.021,2.741,1.054-2.748Z" transform="translate(-488.667 -96.595)"/>
    <path id="Path_337" data-name="Path 337" d="M785.043,150.486a1.33,1.33,0,0,1-.532-.419,1.031,1.031,0,0,1-.211-.591h.772a.53.53,0,0,0,.219.383.8.8,0,0,0,.5.153.847.847,0,0,0,.487-.12.365.365,0,0,0,.174-.311.32.32,0,0,0-.193-.3,3.523,3.523,0,0,0-.612-.216,6.177,6.177,0,0,1-.661-.216,1.162,1.162,0,0,1-.442-.322.839.839,0,0,1-.186-.569.894.894,0,0,1,.174-.522,1.135,1.135,0,0,1,.487-.376,1.817,1.817,0,0,1,.731-.137,1.505,1.505,0,0,1,.992.311,1.115,1.115,0,0,1,.4.847H786.4a.522.522,0,0,0-.2-.386.732.732,0,0,0-.477-.144.773.773,0,0,0-.452.111.348.348,0,0,0-.157.294.322.322,0,0,0,.1.244.747.747,0,0,0,.256.153c.1.037.249.083.443.141a4.919,4.919,0,0,1,.645.212,1.171,1.171,0,0,1,.435.318.832.832,0,0,1,.19.555.931.931,0,0,1-.174.55,1.144,1.144,0,0,1-.482.381,1.981,1.981,0,0,1-1.492-.017Z" transform="translate(-507.872 -96.364)"/>
    <path id="Path_338" data-name="Path 338" d="M804.928,143.586v2a.388.388,0,0,0,.1.292.48.48,0,0,0,.323.087h.459v.628h-.59a1.131,1.131,0,0,1-.772-.237.987.987,0,0,1-.268-.765v-2h-.426v-.609h.426v-.9h.751v.9h.879v.609Z" transform="translate(-523.939 -92.366)"/>
    <path id="Path_339" data-name="Path 339" d="M821.657,149.046H818.9a1,1,0,0,0,.32.7,1.014,1.014,0,0,0,.706.261.87.87,0,0,0,.851-.5h.814a1.626,1.626,0,0,1-.591.814,1.74,1.74,0,0,1-1.065.318,1.842,1.842,0,0,1-.925-.233,1.647,1.647,0,0,1-.642-.654,2,2,0,0,1-.231-.979,2.033,2.033,0,0,1,.226-.978,1.574,1.574,0,0,1,.633-.651,1.888,1.888,0,0,1,.939-.23,1.84,1.84,0,0,1,.91.223,1.581,1.581,0,0,1,.623.624,1.887,1.887,0,0,1,.223.925A2.365,2.365,0,0,1,821.657,149.046Zm-.76-.6a.852.852,0,0,0-.294-.661,1.059,1.059,0,0,0-.715-.249.964.964,0,0,0-.661.245,1.03,1.03,0,0,0-.327.664Z" transform="translate(-535.824 -96.354)"/>
    <path id="Path_340" data-name="Path 340" d="M847.825,147.026a1.288,1.288,0,0,1,.522.522,1.7,1.7,0,0,1,.193.838v2.134H847.8V148.5a1.044,1.044,0,0,0-.242-.743.977.977,0,0,0-1.326,0,1.044,1.044,0,0,0-.245.743v2.021h-.739V148.5a1.043,1.043,0,0,0-.242-.743.978.978,0,0,0-1.326,0,1.044,1.044,0,0,0-.245.743v2.021h-.746v-3.611h.75v.412a1.249,1.249,0,0,1,.464-.348,1.491,1.491,0,0,1,.6-.124,1.6,1.6,0,0,1,.772.174,1.252,1.252,0,0,1,.522.531,1.217,1.217,0,0,1,.51-.522,1.51,1.51,0,0,1,.746-.193A1.641,1.641,0,0,1,847.825,147.026Z" transform="translate(-556.106 -96.298)"/>
  </g>
</svg>
